<svg xmlns="http://www.w3.org/2000/svg" width="500" height="500" viewBox="0 0 500 500" version="1.1"><path d="M 220.218 126.750 L 220.437 140.500 220.748 127.203 L 221.059 113.906 224.279 116.035 L 227.500 118.165 224.500 115.588 C 222.850 114.170, 221.162 113.008, 220.750 113.005 C 220.338 113.002, 220.098 119.188, 220.218 126.750 M 232 121.364 C 232 121.639, 233.350 122.825, 235 124 C 236.650 125.175, 238 125.911, 238 125.636 C 238 125.361, 236.650 124.175, 235 123 C 233.350 121.825, 232 121.089, 232 121.364 M 303.340 134.750 C 302.305 135.713, 301.895 136.162, 302.429 135.750 C 302.963 135.338, 303.749 135, 304.176 135 C 304.603 135, 305.087 142.762, 305.252 152.250 L 305.550 169.500 305.775 151.250 C 305.899 141.213, 305.825 133, 305.611 133 C 305.397 133, 304.375 133.787, 303.340 134.750 M 295.500 140.080 C 289.567 144.565, 288.769 145.831, 294.332 141.930 C 298.535 138.984, 300.822 136.937, 299.809 137.028 C 299.639 137.043, 297.700 138.417, 295.500 140.080 M 253.217 159.372 C 253.013 171.449, 252.892 172.163, 251.250 170.927 C 249.590 169.677, 249.589 169.707, 251.226 171.495 C 252.176 172.532, 253.202 173.131, 253.507 172.826 C 253.812 172.521, 253.921 166.473, 253.748 159.386 L 253.435 146.500 253.217 159.372 M 278.750 152.515 C 275.587 154.998, 273 157.247, 273 157.514 C 273 157.780, 275.700 155.901, 279 153.338 C 284.317 149.210, 285.621 147.998, 284.750 148.001 C 284.613 148.001, 281.913 150.033, 278.750 152.515 M 198.243 150.583 C 198.569 151.111, 200.976 153.080, 203.593 154.959 C 206.209 156.838, 208.084 157.944, 207.757 157.417 C 207.431 156.889, 205.024 154.920, 202.407 153.041 C 199.791 151.162, 197.916 150.056, 198.243 150.583 M 213.243 161.583 C 213.569 162.111, 215.976 164.080, 218.593 165.959 C 221.209 167.838, 223.084 168.944, 222.757 168.417 C 222.431 167.889, 220.024 165.920, 217.407 164.041 C 214.791 162.162, 212.916 161.056, 213.243 161.583 M 239.243 162.583 C 239.569 163.111, 241.976 165.080, 244.593 166.959 C 247.209 168.838, 249.084 169.944, 248.757 169.417 C 248.431 168.889, 246.024 166.920, 243.407 165.041 C 240.791 163.162, 238.916 162.056, 239.243 162.583 M 265.989 165.250 C 264.899 167.037, 264.006 168.912, 264.004 169.417 C 263.999 170.556, 264.141 170.370, 266.786 165.750 C 269.415 161.157, 268.742 160.735, 265.989 165.250 M 261.225 195.750 C 261.101 205.787, 261.395 214, 261.878 214 C 262.360 214, 263.373 213.213, 264.128 212.250 C 265.367 210.669, 265.333 210.631, 263.773 211.853 C 262.154 213.122, 262.028 212.096, 261.749 195.353 L 261.451 177.500 261.225 195.750 M 243.510 187.500 C 247.517 193.066, 248.625 194.098, 246.392 190.183 C 245.351 188.359, 243.629 186.109, 242.565 185.183 C 241.440 184.204, 241.835 185.173, 243.510 187.500 M 293 190.136 L 288.500 194.211 292.736 191.033 C 296.420 188.268, 298.786 185.936, 297.809 186.030 C 297.639 186.046, 295.475 187.894, 293 190.136 M 275.500 203.080 C 269.567 207.565, 268.769 208.831, 274.332 204.930 C 278.535 201.984, 280.822 199.937, 279.809 200.028 C 279.639 200.043, 277.700 201.417, 275.500 203.080 M 197 205.373 C 197 206.453, 200.972 214, 201.541 214 C 201.816 214, 201.076 212.088, 199.897 209.750 C 197.579 205.153, 197 204.278, 197 205.373 M 253.229 232.250 C 253.103 244.213, 252.723 254, 252.384 254 C 252.045 254, 249.458 252.378, 246.634 250.395 C 242.231 247.303, 241.999 247.225, 245 249.844 C 249.074 253.399, 252.775 255.558, 253.518 254.815 C 253.805 254.528, 253.909 244.440, 253.749 232.397 L 253.459 210.500 253.229 232.250 M 204.338 218.064 C 205.776 220.024, 208.877 223.137, 211.227 224.982 C 216.779 229.339, 218.601 230.345, 214.045 226.538 C 212.095 224.908, 208.525 221.533, 206.111 219.038 C 202.389 215.190, 202.119 215.042, 204.338 218.064 M 225.500 235.419 C 227.150 236.837, 230.525 239.384, 233 241.079 C 236.456 243.445, 236.804 243.562, 234.500 241.581 C 232.850 240.163, 229.475 237.616, 227 235.921 C 223.544 233.555, 223.196 233.438, 225.500 235.419 M 198.264 266.718 C 199.784 266.947, 202.034 266.941, 203.264 266.704 C 204.494 266.467, 203.250 266.279, 200.500 266.286 C 197.750 266.294, 196.744 266.488, 198.264 266.718 M 282.264 266.718 C 283.784 266.947, 286.034 266.941, 287.264 266.704 C 288.494 266.467, 287.250 266.279, 284.500 266.286 C 281.750 266.294, 280.744 266.488, 282.264 266.718 M 267.616 274.003 C 265.627 276.204, 264 278.319, 264 278.703 C 264 279.086, 264.339 278.972, 264.753 278.450 C 265.167 277.928, 267.055 275.813, 268.949 273.750 C 270.843 271.688, 272.131 270, 271.813 270 C 271.494 270, 269.605 271.801, 267.616 274.003 M 241.980 275.743 C 247.344 276.215, 248.955 277.369, 249.136 280.872 C 249.264 283.343, 249.299 283.361, 249.717 281.168 C 250.446 277.337, 247.437 274.972, 242.095 275.175 L 237.500 275.349 241.980 275.743 M 198.762 276.707 C 200.006 276.946, 201.806 276.937, 202.762 276.687 C 203.718 276.437, 202.700 276.241, 200.500 276.252 C 198.300 276.263, 197.518 276.468, 198.762 276.707 M 283.250 276.689 C 284.212 276.941, 285.788 276.941, 286.750 276.689 C 287.712 276.438, 286.925 276.232, 285 276.232 C 283.075 276.232, 282.288 276.438, 283.250 276.689 M 260.252 280.500 C 260.263 282.700, 260.468 283.482, 260.707 282.238 C 260.946 280.994, 260.937 279.194, 260.687 278.238 C 260.437 277.282, 260.241 278.300, 260.252 280.500 M 191.073 280.635 C 189.933 282.084, 189.029 283.997, 189.063 284.885 C 189.102 285.862, 189.517 285.521, 190.116 284.021 C 190.660 282.657, 191.826 280.744, 192.708 279.771 C 193.589 278.797, 194.048 278, 193.728 278 C 193.407 278, 192.212 279.186, 191.073 280.635 M 305 280.085 C 305 280.788, 302.739 281.052, 298.592 280.835 C 295.068 280.651, 292.395 280.837, 292.651 281.250 C 292.908 281.663, 296.016 282, 299.559 282 C 304.618 282, 306 281.678, 306 280.500 C 306 279.675, 305.775 279, 305.500 279 C 305.225 279, 305 279.488, 305 280.085 M 262.300 289 C 262.300 292.025, 262.487 293.262, 262.716 291.750 C 262.945 290.238, 262.945 287.762, 262.716 286.250 C 262.487 284.738, 262.300 285.975, 262.300 289 M 240.264 285.718 C 241.784 285.947, 244.034 285.941, 245.264 285.704 C 246.494 285.467, 245.250 285.279, 242.500 285.286 C 239.750 285.294, 238.744 285.488, 240.264 285.718 M 273.272 289 C 273.272 291.475, 273.467 292.488, 273.706 291.250 C 273.944 290.012, 273.944 287.988, 273.706 286.750 C 273.467 285.512, 273.272 286.525, 273.272 289 M 287.750 286.740 C 291.188 286.936, 296.813 286.936, 300.250 286.740 C 303.688 286.545, 300.875 286.385, 294 286.385 C 287.125 286.385, 284.313 286.545, 287.750 286.740 M 189.063 293.194 C 189.029 294.126, 190.012 295.948, 191.250 297.243 C 192.488 298.538, 192.961 298.892, 192.303 298.028 C 191.644 297.165, 190.660 295.343, 190.116 293.979 C 189.458 292.331, 189.106 292.068, 189.063 293.194 M 284.750 294.723 C 286.538 294.945, 289.462 294.945, 291.250 294.723 C 293.038 294.502, 291.575 294.320, 288 294.320 C 284.425 294.320, 282.962 294.502, 284.750 294.723 M 263.040 296.300 C 262.951 298.071, 266.012 302.671, 269.161 305.498 L 272.500 308.496 269.367 304.998 C 267.643 303.074, 265.524 300.150, 264.657 298.500 C 263.790 296.850, 263.062 295.860, 263.040 296.300 M 283.250 301.689 C 284.212 301.941, 285.788 301.941, 286.750 301.689 C 287.712 301.438, 286.925 301.232, 285 301.232 C 283.075 301.232, 282.288 301.438, 283.250 301.689 M 299.437 305.250 L 296.500 308.500 299.750 305.563 C 302.779 302.825, 303.460 302, 302.687 302 C 302.515 302, 301.052 303.462, 299.437 305.250 M 211.500 308.068 C 209.850 309.125, 209.013 309.992, 209.639 309.995 C 210.266 309.998, 211.841 309.115, 213.139 308.033 C 216.112 305.556, 215.397 305.572, 211.500 308.068 M 197.750 311.706 C 198.988 311.944, 201.012 311.944, 202.250 311.706 C 203.488 311.467, 202.475 311.272, 200 311.272 C 197.525 311.272, 196.512 311.467, 197.750 311.706 M 282.762 311.707 C 284.006 311.946, 285.806 311.937, 286.762 311.687 C 287.718 311.437, 286.700 311.241, 284.500 311.252 C 282.300 311.263, 281.518 311.468, 282.762 311.707 M 210.626 322.532 C 209.673 325.015, 209.935 325.716, 211.080 323.750 C 212.213 321.805, 219.456 321.238, 220.342 323.025 C 220.621 323.589, 220.736 323.476, 220.597 322.775 C 220.447 322.022, 218.482 321.377, 215.798 321.200 C 212.329 320.972, 211.104 321.287, 210.626 322.532 M 173.415 340 C 173.415 350.175, 173.564 354.337, 173.745 349.250 C 173.927 344.162, 173.927 335.837, 173.745 330.750 C 173.564 325.662, 173.415 329.825, 173.415 340 M 195 324.500 C 195 326.944, 194.833 327, 187.500 327 L 180 327 180.180 332.250 L 180.360 337.500 180.735 332.750 L 181.110 328 188.555 328 L 196 328 196 325 C 196 323.350, 195.775 322, 195.500 322 C 195.225 322, 195 323.125, 195 324.500 M 237.415 340 C 237.415 350.175, 237.564 354.337, 237.745 349.250 C 237.927 344.162, 237.927 335.837, 237.745 330.750 C 237.564 325.662, 237.415 329.825, 237.415 340 M 271.415 340 C 271.415 350.175, 271.564 354.337, 271.745 349.250 C 271.927 344.162, 271.927 335.837, 271.745 330.750 C 271.564 325.662, 271.415 329.825, 271.415 340 M 310.415 340 C 310.415 350.175, 310.564 354.337, 310.745 349.250 C 310.927 344.162, 310.927 335.837, 310.745 330.750 C 310.564 325.662, 310.415 329.825, 310.415 340 M 261.638 326.500 C 263.950 330.448, 264 330.507, 264 329.277 C 264 328.697, 263.073 327.159, 261.941 325.861 L 259.881 323.500 261.638 326.500 M 299.162 328.543 C 297.487 332.220, 297.807 333.005, 299.618 329.662 C 300.464 328.100, 300.969 326.636, 300.741 326.407 C 300.512 326.179, 299.802 327.140, 299.162 328.543 M 245.185 332.750 L 245.370 338.500 245.735 333.307 C 246.099 328.135, 246.115 328.113, 249.800 327.725 L 253.500 327.336 249.250 327.168 L 245 327 245.185 332.750 M 222.573 330 C 222.941 331.375, 223.659 333.175, 224.169 334 C 224.813 335.042, 224.892 334.737, 224.427 333 C 224.059 331.625, 223.341 329.825, 222.831 329 C 222.187 327.958, 222.108 328.263, 222.573 330 M 254.750 328.998 C 256.584 331.054, 256.288 335.733, 254.250 336.920 C 253.287 337.481, 252.972 337.953, 253.550 337.970 C 256.981 338.069, 258.270 331.206, 255.250 328.921 C 253.761 327.794, 253.687 327.806, 254.750 328.998 M 282.071 328.500 C 282.071 329.050, 282.714 330.625, 283.500 332 C 284.286 333.375, 284.929 334.050, 284.929 333.500 C 284.929 332.950, 284.286 331.375, 283.500 330 C 282.714 328.625, 282.071 327.950, 282.071 328.500 M 214.581 332.649 C 214.236 333.549, 214.189 334.522, 214.476 334.810 C 214.764 335.098, 215 334.782, 215 334.108 C 215 333.434, 215.450 333.160, 216 333.500 C 216.550 333.840, 217 333.668, 217 333.118 C 217 331.317, 215.224 330.973, 214.581 332.649 M 296.162 335.543 C 294.487 339.220, 294.807 340.005, 296.618 336.662 C 297.464 335.100, 297.969 333.636, 297.741 333.407 C 297.512 333.179, 296.802 334.140, 296.162 335.543 M 205.111 338.111 C 204.495 339.878, 204.166 341.499, 204.380 341.713 C 204.594 341.927, 205.273 340.656, 205.889 338.889 C 206.505 337.122, 206.834 335.501, 206.620 335.287 C 206.406 335.073, 205.727 336.344, 205.111 338.111 M 263.079 336.161 C 263.036 337.075, 261.615 338.987, 259.923 340.411 C 258.231 341.835, 257.247 343, 257.736 343 C 259.386 343, 264.225 337.172, 263.689 335.830 C 263.318 334.902, 263.134 335.002, 263.079 336.161 M 285.071 335.500 C 285.071 336.050, 285.714 337.625, 286.500 339 C 287.286 340.375, 287.929 341.050, 287.929 340.500 C 287.929 339.950, 287.286 338.375, 286.500 337 C 285.714 335.625, 285.071 334.950, 285.071 335.500 M 278.150 347.250 C 278.313 359.539, 278.766 358.475, 279.214 344.750 C 279.371 339.937, 279.163 336, 278.750 336 C 278.337 336, 278.067 341.063, 278.150 347.250 M 302.809 336.750 C 302.639 337.163, 302.749 342.225, 303.054 348 L 303.609 358.500 303.804 347.250 C 303.981 337.116, 303.733 334.507, 302.809 336.750 M 192.116 339.200 C 192.006 341.770, 191.723 341.915, 186.250 342.200 L 180.500 342.500 180.432 350.253 L 180.365 358.007 180.725 350.503 L 181.084 343 186.573 343 C 192.305 343, 193.649 341.971, 192.701 338.308 C 192.388 337.104, 192.193 337.402, 192.116 339.200 M 280.071 339.500 C 280.071 340.050, 280.714 341.625, 281.500 343 C 282.286 344.375, 282.929 345.050, 282.929 344.500 C 282.929 343.950, 282.286 342.375, 281.500 341 C 280.714 339.625, 280.071 338.950, 280.071 339.500 M 293.162 342.543 C 291.487 346.220, 291.807 347.005, 293.618 343.662 C 294.464 342.100, 294.969 340.636, 294.741 340.407 C 294.512 340.179, 293.802 341.140, 293.162 342.543 M 288 342.286 C 288 343.713, 290.389 348, 291.184 348 C 291.658 348, 291.272 346.762, 290.326 345.250 C 288.079 341.659, 288 341.558, 288 342.286 M 245.196 350.750 L 245.392 358.500 245.747 351.528 C 245.948 347.568, 246.620 344.226, 247.301 343.793 C 248.114 343.276, 247.937 343.026, 246.750 343.015 C 245.216 343.002, 245.024 343.956, 245.196 350.750 M 215 345 L 209.500 345.674 215.250 345.837 C 218.525 345.930, 221 345.570, 221 345 C 221 344.450, 220.887 344.073, 220.750 344.163 C 220.613 344.253, 218.025 344.629, 215 345 M 298.162 346.543 C 296.487 350.220, 296.807 351.005, 298.618 347.662 C 299.464 346.100, 299.969 344.636, 299.741 344.407 C 299.512 344.179, 298.802 345.140, 298.162 346.543 M 283.071 346.500 C 283.071 347.050, 283.714 348.625, 284.500 350 C 285.286 351.375, 285.929 352.050, 285.929 351.500 C 285.929 350.950, 285.286 349.375, 284.500 348 C 283.714 346.625, 283.071 345.950, 283.071 346.500 M 229.573 350 C 229.941 351.375, 230.659 353.175, 231.169 354 C 231.813 355.042, 231.892 354.737, 231.427 353 C 231.059 351.625, 230.341 349.825, 229.831 349 C 229.187 347.958, 229.108 348.263, 229.573 350 M 207.999 351.750 C 207.999 352.163, 210.362 352.371, 213.249 352.214 C 222.704 351.700, 223.638 351.302, 215.750 351.150 C 211.488 351.067, 208 351.337, 207.999 351.750 M 199.168 354.949 C 198.583 356.627, 198.317 358, 198.577 358 C 199.252 358, 201.139 352.805, 200.644 352.310 C 200.417 352.083, 199.753 353.271, 199.168 354.949" stroke="none" fill="#80aea8" fill-rule="evenodd"/><path d="M 221.156 128.615 C 221.612 148.346, 222.270 149.539, 239.839 162.502 L 252.500 171.843 252.794 160.171 C 253.122 147.185, 252.072 141.315, 248.424 135.745 C 246.326 132.541, 237.993 125.787, 224.156 116.076 L 220.811 113.729 221.156 128.615 M 286.762 147.530 C 263.111 165.190, 261.633 168.146, 262.186 196.687 L 262.500 212.874 279.194 200.448 C 303.699 182.208, 305 179.790, 305 152.465 C 305 142.859, 304.663 135.007, 304.250 135.016 C 303.837 135.026, 295.968 140.657, 286.762 147.530 M 194.008 168.128 C 194.012 179.332, 194.478 191.425, 195.045 195 C 196.406 203.593, 201.623 214.425, 207.087 220.007 C 211.053 224.057, 249.510 252.980, 252.099 253.860 C 252.832 254.109, 253.048 246.712, 252.800 229.860 C 252.392 202.214, 251.752 199.166, 244.036 188.166 C 239.419 181.585, 234.529 177.442, 212 161.026 C 203.475 154.814, 195.938 149.286, 195.250 148.743 C 194.259 147.959, 194.002 151.969, 194.008 168.128 M 190.227 269.063 C 175.322 276.628, 174.006 297.745, 187.835 307.456 C 191.761 310.212, 192.902 310.500, 199.909 310.500 C 206.767 310.500, 208.202 310.157, 212.519 307.491 C 225.450 299.504, 225.783 279.417, 213.132 270.525 C 209.533 267.996, 207.761 267.483, 201.687 267.213 C 195.867 266.955, 193.687 267.307, 190.227 269.063 M 227.750 267.561 C 227.338 267.986, 227 277.933, 227 289.667 L 227 311 232.500 311 L 238 311 238 302.637 L 238 294.274 244.295 293.769 C 251.861 293.161, 256.438 290.988, 258.483 287.033 C 260.465 283.200, 260.413 277.508, 258.364 274.040 C 255.398 269.018, 251.633 267.652, 239.516 267.200 C 233.457 266.974, 228.162 267.137, 227.750 267.561 M 275.491 268.865 C 271.188 270.820, 265.452 276.682, 263.933 280.676 C 262.303 284.963, 262.830 294.750, 264.908 298.790 C 273.348 315.197, 296.453 315.027, 304.104 298.500 C 305.123 296.300, 305.966 292.813, 305.978 290.750 L 306 287 294 287 L 282 287 282 290.500 L 282 294 288 294 C 291.580 294, 294 294.430, 294 295.066 C 294 299.213, 288.108 302.618, 282.692 301.602 C 271.883 299.574, 269.570 282.279, 279.478 277.577 C 284.170 275.351, 287.386 275.613, 290.818 278.500 C 293.214 280.516, 294.874 281, 299.394 281 C 303.264 281, 305 280.606, 305 279.728 C 305 277.342, 298.651 270.746, 294.571 268.893 C 289.308 266.502, 280.720 266.490, 275.491 268.865 M 238 280.500 L 238 286 242.345 286 C 245.284 286, 247.225 285.408, 248.345 284.171 C 252.248 279.858, 248.978 275, 242.171 275 L 238 275 238 280.500 M 194.314 277.950 C 190.068 280.539, 189 282.819, 189 289.299 C 189 295.908, 191.366 299.430, 196.925 301.096 C 205.002 303.515, 212 297.938, 212 289.082 C 212 278.594, 202.778 272.789, 194.314 277.950 M 174 340 L 174 358 176.958 358 L 179.916 358 180.208 350.250 L 180.500 342.500 186.250 342.200 C 191.604 341.921, 192 341.731, 192 339.450 C 192 337.122, 191.701 337, 186 337 L 180 337 180 332 L 180 327 187.500 327 C 194.833 327, 195 326.944, 195 324.500 L 195 322 184.500 322 L 174 322 174 340 M 211.557 322.907 C 211.249 323.406, 208.303 331.533, 205.012 340.967 L 199.026 358.119 202.732 357.810 C 205.950 357.541, 206.558 357.074, 207.363 354.250 L 208.289 351 215.580 351 L 222.871 351 224.136 354.500 C 225.234 357.537, 225.838 358, 228.701 358 C 230.515 358, 232 357.734, 232 357.408 C 232 357.082, 229.300 349.138, 226 339.755 C 222.700 330.371, 220 322.537, 220 322.347 C 220 321.550, 212.071 322.076, 211.557 322.907 M 238 340 L 238 358 241.500 358 L 245 358 245 350.500 C 245 345.084, 245.355 343, 246.277 343 C 246.979 343, 249.554 346.375, 252 350.500 C 256.283 357.724, 256.586 358, 260.223 358 C 262.301 358, 264 357.801, 264 357.558 C 264 357.315, 262.141 354.151, 259.869 350.527 L 255.738 343.938 259.413 340.719 C 264.055 336.652, 264.999 331.943, 262.100 327.311 C 259.652 323.401, 255.245 322.013, 245.250 322.006 L 238 322 238 340 M 272 339.940 L 272 358 275 358 L 278 358 278 347 C 278 340.950, 278.337 336.007, 278.750 336.017 C 279.163 336.026, 281.539 340.863, 284.032 346.767 C 287.918 355.971, 288.915 357.539, 291.032 357.777 C 293.288 358.030, 293.878 357.148, 297.904 347.491 C 300.326 341.681, 302.689 336.692, 303.154 336.405 C 303.619 336.117, 304 340.859, 304 346.941 L 304 358 307 358 L 310 358 310 339.940 L 310 321.879 306.350 322.190 L 302.701 322.500 297.234 335.250 C 294.227 342.262, 291.444 348, 291.049 348 C 290.654 348, 287.878 342.262, 284.882 335.250 L 279.433 322.500 275.716 322.190 L 272 321.879 272 339.940 M 245 332.500 L 245 338 249.800 338 C 255.276 338, 257 336.769, 257 332.857 C 257 329.336, 253.721 327, 248.777 327 L 245 327 245 332.500 M 212.687 338.418 L 210.137 346 215.676 346 C 219.686 346, 221.087 345.655, 220.753 344.750 C 220.499 344.063, 219.495 341.025, 218.523 338 C 217.550 334.975, 216.413 332.126, 215.995 331.668 C 215.578 331.210, 214.089 334.248, 212.687 338.418" stroke="none" fill="#488180" fill-rule="evenodd"/></svg>